<?xml version="1.0" encoding="UTF-8"?>
<svg id="Camada_2" data-name="Camada 2" xmlns="http://www.w3.org/2000/svg" viewBox="0 0 844.05 117.3">
  <g id="Camada_1-2" data-name="Camada 1">
    <g>
      <path d="M33.51,0c4.58,0,8.52,1.65,11.81,4.94,3.29,3.3,4.94,7.23,4.94,11.81H16.76v100.54H0V0h33.51ZM50.27,67.03V16.76h16.76v50.27h-16.76ZM83.79,0h33.51v117.3h-16.76V16.76h-33.51c0-4.58,1.65-8.52,4.94-11.81,3.29-3.29,7.23-4.94,11.81-4.94Z"/>
      <path d="M204.27,16.76h16.76v100.54h-16.76v-50.27h-50.27v50.27h-16.76V16.76c0-4.58,1.65-8.52,4.94-11.81,3.29-3.29,7.23-4.94,11.81-4.94h50.27v16.76h-50.27v33.51h50.27V16.76Z"/>
      <path d="M255.04,16.76v33.51c-4.58,0-8.52-1.65-11.81-4.94-3.3-3.29-4.94-7.23-4.94-11.81v-16.76c0-4.58,1.65-8.52,4.94-11.81,3.29-3.29,7.23-4.94,11.81-4.94h67.03v16.76h-67.03ZM238.29,83.79c0-4.58,1.65-8.52,4.94-11.81,3.29-3.29,7.23-4.94,11.81-4.94v33.51h67.03v16.76h-67.03c-4.58,0-8.52-1.65-11.81-4.94-3.3-3.29-4.94-7.23-4.94-11.81v-16.76ZM322.07,67.03h-67.03v-16.76h67.03v16.76Z"/>
      <path d="M351.73,16.76v33.51c-4.58,0-8.52-1.65-11.81-4.94-3.3-3.29-4.94-7.23-4.94-11.81v-16.76c0-4.58,1.65-8.52,4.94-11.81,3.29-3.29,7.23-4.94,11.81-4.94h67.03v16.76h-67.03ZM402,67.03h-50.27v-16.76h50.27c4.58,0,8.52,1.65,11.81,4.94,3.29,3.3,4.94,7.23,4.94,11.81v33.51c0,4.58-1.65,8.52-4.94,11.81-3.3,3.3-7.23,4.94-11.81,4.94h-67.03v-16.76h67.03v-33.51Z"/>
      <path d="M443.73,0c4.58,0,8.52,1.65,11.81,4.94,3.29,3.3,4.94,7.23,4.94,11.81h-33.51V0h16.76ZM460.49,117.3V16.76h16.76v100.54h-16.76ZM494,0h16.76v16.76h-33.51c0-4.58,1.65-8.52,4.94-11.81,3.29-3.29,7.23-4.94,11.81-4.94Z"/>
      <path d="M538.4,50.27h50.27v16.76h-50.27v50.27h-16.76V0h67.03c4.58,0,8.52,1.65,11.81,4.94,3.29,3.3,4.94,7.23,4.94,11.81v16.76c0,4.58-1.65,8.52-4.94,11.81-3.3,3.3-7.24,4.94-11.81,4.94V16.76h-50.27v33.51ZM588.68,117.3v-50.27c4.58,0,8.52,1.65,11.81,4.94,3.29,3.3,4.94,7.23,4.94,11.81v33.51h-16.76Z"/>
      <path d="M640.29,100.54h50.27v16.76h-50.27c-4.58,0-8.52-1.65-11.81-4.94-3.3-3.29-4.94-7.23-4.94-11.81V0h16.76v100.54ZM690.56,0h16.76v100.54h-16.76V0Z"/>
      <path d="M760.27,0c4.58,0,8.52,1.65,11.81,4.94,3.29,3.3,4.94,7.23,4.94,11.81h-33.51v100.54h-16.76V0h33.51ZM777.02,67.03V16.76h16.76v50.27h-16.76ZM810.54,0h33.51v117.3h-16.76V16.76h-33.51c0-4.58,1.65-8.52,4.94-11.81s7.23-4.94,11.81-4.94Z"/>
    </g>
  </g>
</svg>