<?xml version="1.0" encoding="UTF-8"?>
<svg id="Camada_2" data-name="Camada 2" xmlns="http://www.w3.org/2000/svg" viewBox="0 0 167.44 278.69">
  <g id="Camada_2-2" data-name="Camada 2">
    <g>
      <g>
        <rect x="142.32" y="153.28" width="16.74" height="97.54" rx="4.19" ry="4.19"/>
        <rect x="142.32" y="264.76" width="16.74" height="13.93" rx="4.19" ry="4.19"/>
        <rect x="133.95" y="250.82" width="8.37" height="13.93" rx="4.19" ry="4.19"/>
        <rect x="159.07" y="250.82" width="8.37" height="13.93" rx="4.19" ry="4.19"/>
      </g>
      <g>
        <rect x="108.83" y="27.87" width="16.74" height="97.54" rx="4.19" ry="4.19"/>
        <rect x="108.83" y="139.35" width="16.74" height="13.93" rx="4.19" ry="4.19"/>
        <rect x="100.46" y="125.41" width="8.37" height="13.93" rx="4.19" ry="4.19"/>
        <rect x="125.58" y="125.41" width="8.37" height="13.93" rx="4.19" ry="4.19"/>
      </g>
      <g>
        <rect x="75.35" width="16.74" height="97.54" rx="4.19" ry="4.19"/>
        <rect x="75.35" y="111.48" width="16.74" height="13.93" rx="4.19" ry="4.19"/>
        <rect x="66.97" y="97.54" width="8.37" height="13.93" rx="4.19" ry="4.19"/>
        <rect x="92.09" y="97.54" width="8.37" height="13.93" rx="4.19" ry="4.19"/>
      </g>
      <g>
        <rect x="41.86" y="13.93" width="16.74" height="97.54" rx="4.19" ry="4.19"/>
        <rect x="41.86" y="125.41" width="16.74" height="13.93" rx="4.19" ry="4.19"/>
        <rect x="33.49" y="111.48" width="8.37" height="13.93" rx="4.19" ry="4.19"/>
        <rect x="58.6" y="111.48" width="8.37" height="13.93" rx="4.19" ry="4.19"/>
      </g>
      <g>
        <rect x="8.37" y="41.8" width="16.74" height="97.54" rx="4.19" ry="4.19"/>
        <rect x="8.37" y="153.28" width="16.74" height="13.93" rx="4.19" ry="4.19"/>
        <rect x="0" y="139.35" width="8.37" height="13.93" rx="4.19" ry="4.19"/>
        <rect x="25.12" y="139.35" width="8.37" height="13.93" rx="4.19" ry="4.19"/>
      </g>
    </g>
  </g>
</svg>